<svg height="100" viewBox="0 0 100 100" width="100" xmlns="http://www.w3.org/2000/svg"><path d="m91.935 61.29v-46.774c0-4.447-3.617-8.064-8.064-8.064h-21.81c-2.606-3.887-7.038-6.452-12.061-6.452s-9.455 2.565-12.061 6.452h-21.81c-4.447 0-8.064 3.617-8.064 8.064v46.774h-8.065v8.065c0 4.447 3.618 8.064 8.065 8.064h20.395c1.167 3.581 2.861 6.949 5.071 10.041l3.566 4.992v7.548h25.806v-7.624c2.67-4.581 4.262-9.695 4.702-14.957h24.33c4.447 0 8.065-3.617 8.065-8.064v-8.065zm-41.935-58.064c6.224 0 11.29 5.064 11.29 11.29v8.065h-3.225v-8.065c0-4.447-3.618-8.064-8.065-8.064s-8.065 3.617-8.065 8.064c0 .889-.722 1.613-1.612 1.613-.891 0-1.613-.724-1.613-1.613 0-6.226 5.066-11.29 11.29-11.29zm11.29 22.58v22.581h-12.903c0-2.668-2.171-4.839-4.839-4.839-2.667 0-4.838 2.171-4.838 4.839v-22.581zm-6.451-9.677h-9.974c.18-.506.296-1.045.296-1.613 0-2.668 2.171-4.839 4.839-4.839s4.839 2.171 4.839 4.839zm-43.549-1.613c0-2.668 2.171-4.839 4.839-4.839h20.202c-.539 1.517-.847 3.141-.847 4.839 0 .568.116 1.107.297 1.613h-14.813c-1.779 0-3.226 1.447-3.226 3.226v41.935h-6.452zm-3.225 59.679v-.001c-2.668 0-4.839-2.171-4.839-4.839v-4.839h22.616c-.008.119-.036.232-.036.355v.866c0 .379.041.758.123 1.126l1.574 7.084c.02.084.049.164.068.248zm19.19-12.905h-6.287v-41.935h33.871v3.226h-19.355v29.032h3.226v9.677h-3.954c-.951-1.001-2.283-1.613-3.756-1.613-1.474 0-2.798.625-3.745 1.613zm11.455 3.226v9.678h-.32l-2.15-9.678zm25.806 9.95c0 5.86-1.593 11.615-4.608 16.639l-.231.384v5.285h-19.354v-5.355l-4.168-5.835c-2.657-3.719-4.508-7.871-5.502-12.339l-1.574-7.082c-.031-.139-.047-.282-.047-.428v-.864c0-1.084.883-1.968 1.968-1.968.927 0 1.718.634 1.919 1.541l2.884 12.975h6.132v-29.032c0-.889.723-1.613 1.613-1.613.891 0 1.613.724 1.613 1.613v9.678 12.903 1.613h3.226v-1.613-12.903c0-.889.723-1.613 1.613-1.613s1.613.724 1.613 1.613v3.225 11.291h3.226v-11.291c0-.888.722-1.613 1.613-1.613.89 0 1.613.725 1.613 1.613v3.226 6.452 1.613h3.225v-1.613-6.452c0-.889.723-1.613 1.613-1.613.891 0 1.613.724 1.613 1.613zm1.968-13.176c-.886-.982-2.157-1.613-3.581-1.613-.637 0-1.242.131-1.8.355-.556-2.056-2.421-3.58-4.651-3.58-.637 0-1.242.13-1.8.354-.557-2.056-2.421-3.58-4.652-3.58-.568 0-1.106.116-1.613.297v-1.91h16.129v-27.419-1.613-3.226h14.516v35.484h3.226v-35.484c0-1.779-1.447-3.226-3.226-3.226h-14.516v-1.613c0-1.698-.308-3.322-.847-4.839h20.202c2.668 0 4.839 2.171 4.839 4.839v46.774h-6.452v-3.225h-3.226v3.225zm30.29 8.065c0 2.668-2.171 4.839-4.839 4.839h-24.193v-9.678h29.032zm-46.935-36.963c-.891 0-1.613.725-1.613 1.613 0 .889.722 1.613 1.613 1.613.89 0 1.613-.724 1.613-1.613 0-.888-.723-1.613-1.613-1.613zm-1.613 6.155c-1.873-.667-3.226-2.442-3.226-4.542 0-2.667 2.171-4.838 4.839-4.838 2.667 0 4.838 2.171 4.838 4.838 0 2.1-1.353 3.875-3.225 4.542v6.749h-3.226z" fill="#fff"/></svg>